<?xml version="1.0" standalone="no"?>
<!DOCTYPE svg PUBLIC "-//W3C//DTD SVG 20010904//EN"
 "http://www.w3.org/TR/2001/REC-SVG-20010904/DTD/svg10.dtd">
<svg version="1.0" xmlns="http://www.w3.org/2000/svg"
 width="50.000000pt" height="50.000000pt" viewBox="0 0 50.000000 50.000000"
 preserveAspectRatio="xMidYMid meet">

<g transform="translate(0.000000,50.000000) scale(0.100000,-0.100000)"
fill="#000000" stroke="none">
<path d="M106 464 c-13 -13 -16 -44 -16 -188 0 -167 1 -173 23 -194 13 -12 29
-22 35 -22 7 0 12 -9 12 -20 0 -16 7 -20 30 -20 23 0 30 4 30 20 0 16 7 20 30
20 23 0 30 -4 30 -20 0 -16 7 -20 30 -20 23 0 30 4 30 20 0 11 6 20 13 20 8 0
23 10 35 23 21 22 22 32 22 194 0 143 -3 174 -16 187 -23 23 -265 23 -288 0z
m282 -136 l3 -128 -141 0 -140 0 0 123 c0 68 3 127 7 131 4 3 66 5 137 4 l131
-3 3 -127z m2 -182 c0 -58 -17 -66 -140 -66 -123 0 -140 8 -140 66 l0 34 140
0 140 0 0 -34z m-190 -96 c0 -5 -4 -10 -10 -10 -5 0 -10 5 -10 10 0 6 5 10 10
10 6 0 10 -4 10 -10z m120 0 c0 -5 -4 -10 -10 -10 -5 0 -10 5 -10 10 0 6 5 10
10 10 6 0 10 -4 10 -10z"/>
<path d="M150 330 l0 -90 100 0 100 0 0 90 0 90 -100 0 -100 0 0 -90z m180 0
l0 -70 -80 0 -80 0 0 70 0 70 80 0 80 0 0 -70z"/>
<path d="M231 354 c-25 -32 -26 -47 -6 -64 13 -11 14 -10 9 4 -3 9 -3 23 0 32
5 14 8 14 21 0 8 -8 15 -20 15 -26 0 -6 5 -8 10 -5 16 10 12 40 -9 64 l-19 22
-21 -27z"/>
<path d="M150 156 c-27 -33 18 -72 48 -42 13 13 14 20 6 34 -15 23 -38 26 -54
8z m40 -21 c0 -8 -7 -15 -15 -15 -8 0 -15 7 -15 15 0 8 7 15 15 15 8 0 15 -7
15 -15z"/>
<path d="M300 156 c-27 -33 18 -72 48 -42 13 13 14 20 6 34 -15 23 -38 26 -54
8z m40 -21 c0 -8 -7 -15 -15 -15 -8 0 -15 7 -15 15 0 8 7 15 15 15 8 0 15 -7
15 -15z"/>
</g>
</svg>
